{"title":"DungeonsDragons_Vol02","uid":6291695,"size":1465269025,"categoryP":"video","categoryS":"tv_shows","magnet":"?xt=urn:btih:69d01915a81069b9f71b00a4dc7153b6497adf7c&amp;dn=DungeonsDragons_Vol02&amp;tr=udp%3A%2F%2Ftracker.openbittorrent.com%3A80&amp;tr=udp%3A%2F%2Fopen.demonii.com%3A1337&amp;tr=udp%3A%2F%2Ftracker.coppersurfer.tk%3A6969&amp;tr=udp%3A%2F%2Fexodus.desync.com%3A6969","seeders":0,"leechers":3,"uploader":"ICM369","files":-1,"time":1301840503,"description":"Dungeons And Dragons Tv Series Vol 2(hugg2bear)ICM369\n*****************************************************\n\nThanks to hugg2bear\n\nSeason two: 1984\n\n 8 &quot;Servant of Evil&quot; Jeffrey Scott November 5, 1983 (1983-11-05)\n\nRight on his birthday, Bobby's friends are kidnapped by Venger and brought to a dungeon which is virtually escape-proof. His only hope of rescuing his friends is a person who has been coerced into becoming Venger's gaoler (prison guard). \n__________\n\n 9 &quot;Quest of the Skeleton Warrior&quot; Buzz Dixon November 12, 1983 (1983-11-12)\n\nA war-bird riding knight cursed into undeath seeks out the five children to recover an ancient artifact from the tower of his old order. But inside the tower, the children must confront and overcome their greatest fears. \n__________\n\n10 &quot;The Garden of Zinn&quot; Jeffrey Scott November 19, 1983 (1983-11-19)\n\nDuring a fight with a dragon creature, Bobby is fatally poisoned. The only cure can be found in the garden of Queen Zinn, who is willing to give it to them, provided that Eric becomes her husband. But this request is not as innocent as it seems. \n__________\n\n11 &quot;The Box&quot; Jeffrey Scott November 26, 1983 (1983-11-26)\n\nA sorceress friend of Dungeon Master possesses a chest which could bring the children back home, but once again Venger does not want the children to leave his grasp. \n__________\n\n12 &quot;The Lost Children&quot; Jeffrey Scott December 3, 1983 (1983-12-03)\n\nThe five children encounter another band of children stranded in the Realm as they are. Their father possesses a ship which could take them home, but he is now Venger's prisoner, and the children must infiltrate his stronghold to bail the man out. \n__________\n\n13 &quot;P-R-E-S-T-O Spells Disaster&quot; Jeffrey Scott December 10, 1983 (1983-12-10)\n\nCaught in a giant's castle, the children's only hope for freedom is Presto, who has eluded capture but is still as bumbling with his magic hat as ever. In aiding his friends Presto also rescues the young of one of the few remaining good dragons left in the realm. \n__________\n\n14 &quot;The Girl Who Dreamed Tomorrow&quot; Karl Geurs September 8, 1984 (1984-09-08)\n\nThe children find a cart from the Dungeons and Dragons ride and attempt to use it to return home. Before they can board it, they find a young girl named Terri who rode the cart into the realm. The girl happens to have a magical necklace which contains power that can predict the future through dreams. The children set out to find a magical portal found at the end of a deadly maze that can take them all home. \n__________\n\nFormat                           : AVI\nFormat/Info                      : Audio Video Interleave\nFile size                        : 199 MiB\nDuration                         : 20mn 46s\nOverall bit rate                 : 1 340 Kbps\n\nVideo\nID                               : 0\nFormat                           : MPEG-4 Visual\nFormat profile                   : Advanced Simple@L4\nFormat settings, BVOP            : No\nFormat settings, QPel            : No\nFormat settings, GMC             : No warppoints\nFormat settings, Matrix          : Default (H.263)\nCodec ID                         : XVID\nCodec ID/Hint                    : XviD\nDuration                         : 20mn 46s\nBit rate                         : 1 200 Kbps\nWidth                            : 640 pixels\nHeight                           : 480 pixels\nDisplay aspect ratio             : 4:3\nFrame rate                       : 25.000 fps\nColor space                      : YUV\nChroma subsampling               : 4:2:0\nBit depth                        : 8 bits\nScan type                        : Progressive\nCompression mode                 : Lossy\nBits/(Pixel*Frame)               : 0.156\nStream size                      : 178 MiB (90%)\nWriting library                  : Magic0432\n\nAudio\nID                               : 1\nFormat                           : MPEG Audio\nFormat version                   : Version 1\nFormat profile                   : Layer 3\nMode                             : Joint stereo\nMode extension                   : MS Stereo\nCodec ID                         : 55\nCodec ID/Hint                    : MP3\nDuration                         : 20mn 46s\nBit rate mode                    : Constant\nBit rate                         : 128 Kbps\nChannel(s)                       : 2 channels\nSampling rate                    : 44.1 KHz\nCompression mode                 : Lossy\nStream size                      : 19.0 MiB (10%)\nAlignment                        : Aligned on interleaves\nInterleave, duration             : 26 ms (0.65 video frame)\n\n\n[url]http://www.imdb.com/title/tt0085011/[/url]\n","torrent":{"xt":"urn:btih:69d01915a81069b9f71b00a4dc7153b6497adf7c","amp;dn":"DungeonsDragons_Vol02","amp;tr":["udp%3A%2F%2Ftracker.openbittorrent.com%3A80","udp%3A%2F%2Fopen.demonii.com%3A1337","udp%3A%2F%2Ftracker.coppersurfer.tk%3A6969","udp%3A%2F%2Fexodus.desync.com%3A6969"],"infoHash":"69d01915a81069b9f71b00a4dc7153b6497adf7c","infoHashBuffer":{"type":"Buffer","data":[105,208,25,21,168,16,105,185,247,27,0,164,220,113,83,182,73,122,223,124]},"announce":[],"urlList":[]}}